<svg width="70" height="70" viewBox="0 0 70 70" fill="none" xmlns="http://www.w3.org/2000/svg">
<path d="M63.0332 49.269H61.067V51.2353H63.0332V49.269Z" fill="#4D850E"/>
<path d="M61.0669 51.2354H59.1007V53.2016H61.0669V51.2354Z" fill="#4D850E"/>
<path d="M61.0669 49.269H59.1007V51.2353H61.0669V49.269Z" fill="#4D850E"/>
<path d="M61.0669 31.5674H59.1007V33.5336H61.0669V31.5674Z" fill="#C64949"/>
<path d="M61.0669 29.6011H59.1007V31.5673H61.0669V29.6011Z" fill="#FC3C3C"/>
<path d="M61.0669 27.6348H59.1007V29.601H61.0669V27.6348Z" fill="#FC3C3C"/>
<path d="M59.1007 53.2017H57.1345V55.1679H59.1007V53.2017Z" fill="#4D850E"/>
<path d="M59.1007 51.2354H57.1345V53.2016H59.1007V51.2354Z" fill="#4D850E"/>
<path d="M59.1007 49.269H57.1345V51.2353H59.1007V49.269Z" fill="#4D850E"/>
<path d="M59.1007 47.3027H57.1345V49.2689H59.1007V47.3027Z" fill="#FFF4C1"/>
<path d="M59.1007 45.3315H57.1345V47.3028H59.1007V45.3315Z" fill="#FFF4C1"/>
<path d="M59.1007 43.3652H57.1345V45.3315H59.1007V43.3652Z" fill="#FFF4C1"/>
<path d="M59.1007 41.3989H57.1345V43.3651H59.1007V41.3989Z" fill="#FFF4C1"/>
<path d="M59.1007 39.4321H57.1345V41.3983H59.1007V39.4321Z" fill="#FFF4C1"/>
<path d="M59.1007 37.4663H57.1345V39.4325H59.1007V37.4663Z" fill="#FFF4C1"/>
<path d="M59.1007 35.5H57.1345V37.4662H59.1007V35.5Z" fill="#FFF4C1"/>
<path d="M59.1007 33.5337H57.1345V35.4999H59.1007V33.5337Z" fill="#C64949"/>
<path d="M59.1007 31.5674H57.1345V33.5336H59.1007V31.5674Z" fill="#C64949"/>
<path d="M59.1007 29.6011H57.1345V31.5673H59.1007V29.6011Z" fill="#FC3C3C"/>
<path d="M59.1007 27.6348H57.1345V29.601H59.1007V27.6348Z" fill="#FC3C3C"/>
<path d="M59.1007 25.6685H57.1345V27.6347H59.1007V25.6685Z" fill="#FC3C3C"/>
<path d="M57.1345 55.1685H55.1632V57.1347H57.1345V55.1685Z" fill="#4D850E"/>
<path d="M57.1345 53.2017H55.1632V55.1679H57.1345V53.2017Z" fill="#4D850E"/>
<path d="M57.1345 51.2354H55.1632V53.2016H57.1345V51.2354Z" fill="#4D850E"/>
<path d="M57.1345 49.269H55.1632V51.2353H57.1345V49.269Z" fill="#4D850E"/>
<path d="M57.1345 47.3027H55.1632V49.2689H57.1345V47.3027Z" fill="#FFF4C1"/>
<path d="M57.1345 45.3315H55.1632V47.3028H57.1345V45.3315Z" fill="#FFF4C1"/>
<path d="M57.1345 43.3652H55.1632V45.3315H57.1345V43.3652Z" fill="#FFF4C1"/>
<path d="M57.1345 41.3989H55.1632V43.3651H57.1345V41.3989Z" fill="#FFF4C1"/>
<path d="M57.1345 39.4321H55.1632V41.3983H57.1345V39.4321Z" fill="#FFF4C1"/>
<path d="M57.1345 37.4663H55.1632V39.4325H57.1345V37.4663Z" fill="#FFF4C1"/>
<path d="M57.1345 35.5H55.1632V37.4662H57.1345V35.5Z" fill="#FFF4C1"/>
<path d="M57.1345 33.5337H55.1632V35.4999H57.1345V33.5337Z" fill="#C64949"/>
<path d="M57.1345 31.5674H55.1632V33.5336H57.1345V31.5674Z" fill="#FC3C3C"/>
<path d="M57.1345 29.6011H55.1632V31.5673H57.1345V29.6011Z" fill="#FC3C3C"/>
<path d="M57.1345 27.6348H55.1632V29.601H57.1345V27.6348Z" fill="#FC3C3C"/>
<path d="M57.1345 25.6685H55.1632V27.6347H57.1345V25.6685Z" fill="#FC3C3C"/>
<path d="M57.1345 23.7021H55.1632V25.6684H57.1345V23.7021Z" fill="#FC3C3C"/>
<path d="M57.1345 21.7363H55.1632V23.7026H57.1345V21.7363Z" fill="#FC3C3C"/>
<path d="M55.1632 55.1685H53.197V57.1347H55.1632V55.1685Z" fill="#4D850E"/>
<path d="M55.1632 53.2017H53.197V55.1679H55.1632V53.2017Z" fill="#4D850E"/>
<path d="M55.1632 51.2354H53.197V53.2016H55.1632V51.2354Z" fill="#4D850E"/>
<path d="M55.1632 49.269H53.197V51.2353H55.1632V49.269Z" fill="#FFF4C1"/>
<path d="M55.1632 47.3027H53.197V49.2689H55.1632V47.3027Z" fill="#FFF4C1"/>
<path d="M55.1632 45.3315H53.197V47.3028H55.1632V45.3315Z" fill="#FFF4C1"/>
<path d="M55.1632 43.3652H53.197V45.3315H55.1632V43.3652Z" fill="#FFF4C1"/>
<path d="M55.1632 41.3989H53.197V43.3651H55.1632V41.3989Z" fill="#FFF4C1"/>
<path d="M55.1632 39.4321H53.197V41.3983H55.1632V39.4321Z" fill="#FFF4C1"/>
<path d="M55.1632 37.4663H53.197V39.4325H55.1632V37.4663Z" fill="#FFF4C1"/>
<path d="M55.1632 35.5H53.197V37.4662H55.1632V35.5Z" fill="#FFF4C1"/>
<path d="M55.1632 33.5337H53.197V35.4999H55.1632V33.5337Z" fill="#C64949"/>
<path d="M55.1632 31.5674H53.197V33.5336H55.1632V31.5674Z" fill="#FC3C3C"/>
<path d="M55.1632 29.6011H53.197V31.5673H55.1632V29.6011Z" fill="#FC3C3C"/>
<path d="M55.1632 27.6348H53.197V29.601H55.1632V27.6348Z" fill="#FC3C3C"/>
<path d="M55.1632 25.6685H53.197V27.6347H55.1632V25.6685Z" fill="#FC3C3C"/>
<path d="M55.1632 23.7021H53.197V25.6684H55.1632V23.7021Z" fill="#FC3C3C"/>
<path d="M55.1632 21.7363H53.197V23.7026H55.1632V21.7363Z" fill="#FC3C3C"/>
<path d="M55.1632 19.769H53.197V21.7353H55.1632V19.769Z" fill="#FC3C3C"/>
<path d="M53.1971 57.1348H51.2308V59.101H53.1971V57.1348Z" fill="#4D850E"/>
<path d="M53.1971 55.1685H51.2308V57.1347H53.1971V55.1685Z" fill="#4D850E"/>
<path d="M53.1971 53.2017H51.2308V55.1679H53.1971V53.2017Z" fill="#4D850E"/>
<path d="M53.1971 51.2354H51.2308V53.2016H53.1971V51.2354Z" fill="#4D850E"/>
<path d="M53.1971 49.269H51.2308V51.2353H53.1971V49.269Z" fill="#FFF4C1"/>
<path d="M53.1971 47.3027H51.2308V49.2689H53.1971V47.3027Z" fill="#FFF4C1"/>
<path d="M53.1971 45.3315H51.2308V47.3028H53.1971V45.3315Z" fill="#FFF4C1"/>
<path d="M53.1971 43.3652H51.2308V45.3315H53.1971V43.3652Z" fill="#FFF4C1"/>
<path d="M53.1971 41.3989H51.2308V43.3651H53.1971V41.3989Z" fill="#FFF4C1"/>
<path d="M53.1971 39.4321H51.2308V41.3983H53.1971V39.4321Z" fill="#FFF4C1"/>
<path d="M53.1971 37.4663H51.2308V39.4325H53.1971V37.4663Z" fill="#FFF4C1"/>
<path d="M53.1971 35.5H51.2308V37.4662H53.1971V35.5Z" fill="#C64949"/>
<path d="M53.1971 33.5337H51.2308V35.4999H53.1971V33.5337Z" fill="#FC3C3C"/>
<path d="M53.1971 31.5674H51.2308V33.5336H53.1971V31.5674Z" fill="#FC3C3C"/>
<path d="M53.1971 29.6011H51.2308V31.5673H53.1971V29.6011Z" fill="#FC3C3C"/>
<path d="M53.1971 27.6348H51.2308V29.601H53.1971V27.6348Z" fill="#FC3C3C"/>
<path d="M53.1971 25.6685H51.2308V27.6347H53.1971V25.6685Z" fill="#FC3C3C"/>
<path d="M53.1971 23.7021H51.2308V25.6684H53.1971V23.7021Z" fill="#FC3C3C"/>
<path d="M53.1971 21.7363H51.2308V23.7026H53.1971V21.7363Z" fill="#FC3C3C"/>
<path d="M53.1971 19.769H51.2308V21.7353H53.1971V19.769Z" fill="#FC3C3C"/>
<path d="M53.1971 17.8027H51.2308V19.7689H53.1971V17.8027Z" fill="#FC3C3C"/>
<path d="M53.1971 15.8315H51.2308V17.8028H53.1971V15.8315Z" fill="#FC3C3C"/>
<path d="M51.2303 57.1348H49.264V59.101H51.2303V57.1348Z" fill="#4D850E"/>
<path d="M51.2303 55.1685H49.264V57.1347H51.2303V55.1685Z" fill="#4D850E"/>
<path d="M51.2303 53.2017H49.264V55.1679H51.2303V53.2017Z" fill="#4D850E"/>
<path d="M51.2303 51.2354H49.264V53.2016H51.2303V51.2354Z" fill="#FFF4C1"/>
<path d="M51.2303 49.269H49.264V51.2353H51.2303V49.269Z" fill="#FFF4C1"/>
<path d="M51.2303 47.3027H49.264V49.2689H51.2303V47.3027Z" fill="#FFF4C1"/>
<path d="M51.2303 45.3315H49.264V47.3028H51.2303V45.3315Z" fill="#FFF4C1"/>
<path d="M51.2303 43.3652H49.264V45.3315H51.2303V43.3652Z" fill="#FFF4C1"/>
<path d="M51.2303 41.3989H49.264V43.3651H51.2303V41.3989Z" fill="#FFF4C1"/>
<path d="M51.2303 39.4321H49.264V41.3983H51.2303V39.4321Z" fill="#FFF4C1"/>
<path d="M51.2303 37.4663H49.264V39.4325H51.2303V37.4663Z" fill="#C64949"/>
<path d="M51.2303 35.5H49.264V37.4662H51.2303V35.5Z" fill="#FC3C3C"/>
<path d="M51.2303 33.5337H49.264V35.4999H51.2303V33.5337Z" fill="#FC3C3C"/>
<path d="M51.2303 31.5674H49.264V33.5336H51.2303V31.5674Z" fill="#FC3C3C"/>
<path d="M51.2303 29.6011H49.264V31.5673H51.2303V29.6011Z" fill="#FC3C3C"/>
<path d="M51.2303 27.6348H49.264V29.601H51.2303V27.6348Z" fill="#FC3C3C"/>
<path d="M51.2303 25.6685H49.264V27.6347H51.2303V25.6685Z" fill="#FC3C3C"/>
<path d="M51.2303 23.7021H49.264V25.6684H51.2303V23.7021Z" fill="#FC3C3C"/>
<path d="M51.2303 21.7363H49.264V23.7026H51.2303V21.7363Z" fill="#FC3C3C"/>
<path d="M51.2303 19.769H49.264V21.7353H51.2303V19.769Z" fill="#FC3C3C"/>
<path d="M51.2303 17.8027H49.264V19.7689H51.2303V17.8027Z" fill="#FC3C3C"/>
<path d="M51.2303 15.8315H49.264V17.8028H51.2303V15.8315Z" fill="#FC3C3C"/>
<path d="M51.2303 13.8652H49.264V15.8315H51.2303V13.8652Z" fill="#FC3C3C"/>
<path d="M49.2641 59.1011H47.2979V61.0673H49.2641V59.1011Z" fill="#4D850E"/>
<path d="M49.2641 57.1348H47.2979V59.101H49.2641V57.1348Z" fill="#4D850E"/>
<path d="M49.2641 55.1685H47.2979V57.1347H49.2641V55.1685Z" fill="#4D850E"/>
<path d="M49.2641 53.2017H47.2979V55.1679H49.2641V53.2017Z" fill="#FFF4C1"/>
<path d="M49.2641 51.2354H47.2979V53.2016H49.2641V51.2354Z" fill="#FFF4C1"/>
<path d="M49.2641 49.269H47.2979V51.2353H49.2641V49.269Z" fill="#FFF4C1"/>
<path d="M49.2641 47.3027H47.2979V49.2689H49.2641V47.3027Z" fill="#FFF4C1"/>
<path d="M49.2641 45.3315H47.2979V47.3028H49.2641V45.3315Z" fill="#FFF4C1"/>
<path d="M49.2641 43.3652H47.2979V45.3315H49.2641V43.3652Z" fill="#FFF4C1"/>
<path d="M49.2641 41.3989H47.2979V43.3651H49.2641V41.3989Z" fill="#FFF4C1"/>
<path d="M49.2641 39.4321H47.2979V41.3983H49.2641V39.4321Z" fill="#C64949"/>
<path d="M49.2641 37.4663H47.2979V39.4325H49.2641V37.4663Z" fill="#C64949"/>
<path d="M49.2641 35.5H47.2979V37.4662H49.2641V35.5Z" fill="#FC3C3C"/>
<path d="M49.2641 33.5337H47.2979V35.4999H49.2641V33.5337Z" fill="#FC3C3C"/>
<path d="M49.2641 31.5674H47.2979V33.5336H49.2641V31.5674Z" fill="#FC3C3C"/>
<path d="M49.2641 29.6011H47.2979V31.5673H49.2641V29.6011Z" fill="#FC3C3C"/>
<path d="M49.2641 27.6348H47.2979V29.601H49.2641V27.6348Z" fill="#FC3C3C"/>
<path d="M49.2641 25.6685H47.2979V27.6347H49.2641V25.6685Z" fill="#FC3C3C"/>
<path d="M49.2641 23.7021H47.2979V25.6684H49.2641V23.7021Z" fill="#FC3C3C"/>
<path d="M49.2641 21.7363H47.2979V23.7026H49.2641V21.7363Z" fill="#FC3C3C"/>
<path d="M49.2641 19.769H47.2979V21.7353H49.2641V19.769Z" fill="#FC3C3C"/>
<path d="M49.2641 17.8027H47.2979V19.7689H49.2641V17.8027Z" fill="#FC3C3C"/>
<path d="M49.2641 15.8315H47.2979V17.8028H49.2641V15.8315Z" fill="#FC3C3C"/>
<path d="M49.2641 13.8652H47.2979V15.8315H49.2641V13.8652Z" fill="#FC3C3C"/>
<path d="M49.2641 11.8994H47.2979V13.8656H49.2641V11.8994Z" fill="#FC3C3C"/>
<path d="M47.2979 59.1011H45.3317V61.0673H47.2979V59.1011Z" fill="#4D850E"/>
<path d="M47.2979 57.1348H45.3317V59.101H47.2979V57.1348Z" fill="#4D850E"/>
<path d="M47.2979 55.1685H45.3317V57.1347H47.2979V55.1685Z" fill="#4D850E"/>
<path d="M47.2979 53.2017H45.3317V55.1679H47.2979V53.2017Z" fill="#FFF4C1"/>
<path d="M47.2979 51.2354H45.3317V53.2016H47.2979V51.2354Z" fill="#FFF4C1"/>
<path d="M47.2979 49.269H45.3317V51.2353H47.2979V49.269Z" fill="#FFF4C1"/>
<path d="M47.2979 47.3027H45.3317V49.2689H47.2979V47.3027Z" fill="#FFF4C1"/>
<path d="M47.2979 45.3315H45.3317V47.3028H47.2979V45.3315Z" fill="#FFF4C1"/>
<path d="M47.2979 43.3652H45.3317V45.3315H47.2979V43.3652Z" fill="#FFF4C1"/>
<path d="M47.2979 41.3989H45.3317V43.3651H47.2979V41.3989Z" fill="#FFF4C1"/>
<path d="M47.2979 39.4321H45.3317V41.3983H47.2979V39.4321Z" fill="#C64949"/>
<path d="M47.2979 37.4663H45.3317V39.4325H47.2979V37.4663Z" fill="#FC3C3C"/>
<path d="M47.2979 35.5H45.3317V37.4662H47.2979V35.5Z" fill="#FC3C3C"/>
<path d="M47.2979 33.5337H45.3317V35.4999H47.2979V33.5337Z" fill="#FC3C3C"/>
<path d="M47.2979 31.5674H45.3317V33.5336H47.2979V31.5674Z" fill="#FC3C3C"/>
<path d="M47.2979 29.6011H45.3317V31.5673H47.2979V29.6011Z" fill="#FC3C3C"/>
<path d="M47.2979 27.6348H45.3317V29.601H47.2979V27.6348Z" fill="#FC3C3C"/>
<path d="M47.2979 25.6685H45.3317V27.6347H47.2979V25.6685Z" fill="#FC3C3C"/>
<path d="M47.2979 23.7021H45.3317V25.6684H47.2979V23.7021Z" fill="#FC3C3C"/>
<path d="M47.2979 21.7363H45.3317V23.7026H47.2979V21.7363Z" fill="#FC3C3C"/>
<path d="M47.2979 19.769H45.3317V21.7353H47.2979V19.769Z" fill="#FC3C3C"/>
<path d="M47.2979 17.8027H45.3317V19.7689H47.2979V17.8027Z" fill="#FC3C3C"/>
<path d="M47.2979 15.8315H45.3317V17.8028H47.2979V15.8315Z" fill="#FC3C3C"/>
<path d="M47.2979 13.8652H45.3317V15.8315H47.2979V13.8652Z" fill="#FC3C3C"/>
<path d="M47.2979 11.8994H45.3317V13.8656H47.2979V11.8994Z" fill="#FC3C3C"/>
<path d="M47.2979 9.93311H45.3317V11.8993H47.2979V9.93311Z" fill="#FC3C3C"/>
<path d="M47.2979 7.9668H45.3317V9.93302H47.2979V7.9668Z" fill="#FC3C3C"/>
<path d="M45.3316 61.0669H43.3654V63.0331H45.3316V61.0669Z" fill="#4D850E"/>
<path d="M45.3316 59.1011H43.3654V61.0673H45.3316V59.1011Z" fill="#4D850E"/>
<path d="M45.3316 57.1348H43.3654V59.101H45.3316V57.1348Z" fill="#4D850E"/>
<path d="M45.3316 55.1685H43.3654V57.1347H45.3316V55.1685Z" fill="#FFF4C1"/>
<path d="M45.3316 53.2017H43.3654V55.1679H45.3316V53.2017Z" fill="#FFF4C1"/>
<path d="M45.3316 51.2354H43.3654V53.2016H45.3316V51.2354Z" fill="#FFF4C1"/>
<path d="M45.3316 49.269H43.3654V51.2353H45.3316V49.269Z" fill="#FFF4C1"/>
<path d="M45.3316 47.3027H43.3654V49.2689H45.3316V47.3027Z" fill="#FFF4C1"/>
<path d="M45.3316 45.3315H43.3654V47.3028H45.3316V45.3315Z" fill="#FFF4C1"/>
<path d="M45.3316 43.3652H43.3654V45.3315H45.3316V43.3652Z" fill="#FFF4C1"/>
<path d="M45.3316 41.3989H43.3654V43.3651H45.3316V41.3989Z" fill="#C64949"/>
<path d="M45.3316 39.4321H43.3654V41.3983H45.3316V39.4321Z" fill="#C64949"/>
<path d="M45.3316 37.4663H43.3654V39.4325H45.3316V37.4663Z" fill="#FC3C3C"/>
<path d="M45.3316 35.5H43.3654V37.4662H45.3316V35.5Z" fill="#FC3C3C"/>
<path d="M45.3316 33.5337H43.3654V35.4999H45.3316V33.5337Z" fill="#FC3C3C"/>
<path d="M45.3316 31.5674H43.3654V33.5336H45.3316V31.5674Z" fill="#FC3C3C"/>
<path d="M45.3316 29.6011H43.3654V31.5673H45.3316V29.6011Z" fill="#FC3C3C"/>
<path d="M45.3316 27.6348H43.3654V29.601H45.3316V27.6348Z" fill="#FC3C3C"/>
<path d="M45.3316 25.6685H43.3654V27.6347H45.3316V25.6685Z" fill="#FC3C3C"/>
<path d="M45.3316 23.7021H43.3654V25.6684H45.3316V23.7021Z" fill="#FC3C3C"/>
<path d="M45.3316 21.7363H43.3654V23.7026H45.3316V21.7363Z" fill="#FC3C3C"/>
<path d="M45.3316 19.769H43.3654V21.7353H45.3316V19.769Z" fill="#FC3C3C"/>
<path d="M45.3316 17.8027H43.3654V19.7689H45.3316V17.8027Z" fill="#FC3C3C"/>
<path d="M45.3316 15.8315H43.3654V17.8028H45.3316V15.8315Z" fill="#FC3C3C"/>
<path d="M45.3316 13.8652H43.3654V15.8315H45.3316V13.8652Z" fill="#FC3C3C"/>
<path d="M45.3316 11.8994H43.3654V13.8656H45.3316V11.8994Z" fill="#FC3C3C"/>
<path d="M45.3316 9.93311H43.3654V11.8993H45.3316V9.93311Z" fill="#FC3C3C"/>
<path d="M45.3316 7.9668H43.3654V9.93302H45.3316V7.9668Z" fill="#FC3C3C"/>
<path d="M45.3316 6H43.3654V7.96623H45.3316V6Z" fill="#FC3C3C"/>
<path d="M43.3654 61.0669H41.3992V63.0331H43.3654V61.0669Z" fill="#4D850E"/>
<path d="M43.3654 59.1011H41.3992V61.0673H43.3654V59.1011Z" fill="#4D850E"/>
<path d="M43.3654 57.1348H41.3992V59.101H43.3654V57.1348Z" fill="#FFF4C1"/>
<path d="M43.3654 55.1685H41.3992V57.1347H43.3654V55.1685Z" fill="#FFF4C1"/>
<path d="M43.3654 53.2017H41.3992V55.1679H43.3654V53.2017Z" fill="#FFF4C1"/>
<path d="M43.3654 51.2354H41.3992V53.2016H43.3654V51.2354Z" fill="#FFF4C1"/>
<path d="M43.3654 49.269H41.3992V51.2353H43.3654V49.269Z" fill="#FFF4C1"/>
<path d="M43.3654 47.3027H41.3992V49.2689H43.3654V47.3027Z" fill="#FFF4C1"/>
<path d="M43.3654 45.3315H41.3992V47.3028H43.3654V45.3315Z" fill="#FFF4C1"/>
<path d="M43.3654 43.3652H41.3992V45.3315H43.3654V43.3652Z" fill="#FFF4C1"/>
<path d="M43.3654 41.3989H41.3992V43.3651H43.3654V41.3989Z" fill="#C64949"/>
<path d="M43.3654 39.4321H41.3992V41.3983H43.3654V39.4321Z" fill="#FC3C3C"/>
<path d="M43.3654 37.4663H41.3992V39.4325H43.3654V37.4663Z" fill="#FC3C3C"/>
<path d="M43.3654 35.5H41.3992V37.4662H43.3654V35.5Z" fill="#FC3C3C"/>
<path d="M43.3654 33.5337H41.3992V35.4999H43.3654V33.5337Z" fill="#FC3C3C"/>
<path d="M43.3654 31.5674H41.3992V33.5336H43.3654V31.5674Z" fill="#FC3C3C"/>
<path d="M43.3654 29.6011H41.3992V31.5673H43.3654V29.6011Z" fill="#FC3C3C"/>
<path d="M43.3654 27.6348H41.3992V29.601H43.3654V27.6348Z" fill="#FC3C3C"/>
<path d="M43.3654 25.6685H41.3992V27.6347H43.3654V25.6685Z" fill="#FC3C3C"/>
<path d="M43.3654 23.7021H41.3992V25.6684H43.3654V23.7021Z" fill="#FC3C3C"/>
<path d="M43.3654 21.7363H41.3992V23.7026H43.3654V21.7363Z" fill="#FC3C3C"/>
<path d="M43.3654 19.769H41.3992V21.7353H43.3654V19.769Z" fill="#FC3C3C"/>
<path d="M43.3654 17.8027H41.3992V19.7689H43.3654V17.8027Z" fill="#FC3C3C"/>
<path d="M43.3654 15.8315H41.3992V17.8028H43.3654V15.8315Z" fill="#FC3C3C"/>
<path d="M43.3654 13.8652H41.3992V15.8315H43.3654V13.8652Z" fill="#FC3C3C"/>
<path d="M43.3654 11.8994H41.3992V13.8656H43.3654V11.8994Z" fill="#FC3C3C"/>
<path d="M43.3654 9.93311H41.3992V11.8993H43.3654V9.93311Z" fill="#FC3C3C"/>
<path d="M43.3654 7.9668H41.3992V9.93302H43.3654V7.9668Z" fill="#FC3C3C"/>
<path d="M43.3654 6H41.3992V7.96623H43.3654V6Z" fill="#FC3C3C"/>
<path d="M41.3986 63.0337H39.4324V64.9999H41.3986V63.0337Z" fill="#4D850E"/>
<path d="M41.3986 61.0669H39.4324V63.0331H41.3986V61.0669Z" fill="#4D850E"/>
<path d="M41.3986 59.1011H39.4324V61.0673H41.3986V59.1011Z" fill="#4D850E"/>
<path d="M41.3986 57.1348H39.4324V59.101H41.3986V57.1348Z" fill="#FFF4C1"/>
<path d="M41.3986 55.1685H39.4324V57.1347H41.3986V55.1685Z" fill="#FFF4C1"/>
<path d="M41.3986 53.2017H39.4324V55.1679H41.3986V53.2017Z" fill="#FFF4C1"/>
<path d="M41.3986 51.2354H39.4324V53.2016H41.3986V51.2354Z" fill="#FFF4C1"/>
<path d="M41.3986 49.269H39.4324V51.2353H41.3986V49.269Z" fill="#FFF4C1"/>
<path d="M41.3986 47.3027H39.4324V49.2689H41.3986V47.3027Z" fill="#FFF4C1"/>
<path d="M41.3986 45.3315H39.4324V47.3028H41.3986V45.3315Z" fill="#FFF4C1"/>
<path d="M41.3986 43.3652H39.4324V45.3315H41.3986V43.3652Z" fill="#FFF4C1"/>
<path d="M41.3986 41.3989H39.4324V43.3651H41.3986V41.3989Z" fill="#C64949"/>
<path d="M41.3986 39.4321H39.4324V41.3983H41.3986V39.4321Z" fill="#FC3C3C"/>
<path d="M41.3986 37.4663H39.4324V39.4325H41.3986V37.4663Z" fill="#FC3C3C"/>
<path d="M41.3986 35.5H39.4324V37.4662H41.3986V35.5Z" fill="#FC3C3C"/>
<path d="M41.3986 33.5337H39.4324V35.4999H41.3986V33.5337Z" fill="#FC3C3C"/>
<path d="M41.3986 31.5674H39.4324V33.5336H41.3986V31.5674Z" fill="#FC3C3C"/>
<path d="M41.3986 29.6011H39.4324V31.5673H41.3986V29.6011Z" fill="#FC3C3C"/>
<path d="M41.3986 27.6348H39.4324V29.601H41.3986V27.6348Z" fill="#FC3C3C"/>
<path d="M41.3986 25.6685H39.4324V27.6347H41.3986V25.6685Z" fill="#FC3C3C"/>
<path d="M41.3986 23.7021H39.4324V25.6684H41.3986V23.7021Z" fill="#FC3C3C"/>
<path d="M41.3986 21.7363H39.4324V23.7026H41.3986V21.7363Z" fill="#FC3C3C"/>
<path d="M41.3986 19.769H39.4324V21.7353H41.3986V19.769Z" fill="#FC3C3C"/>
<path d="M41.3986 17.8027H39.4324V19.7689H41.3986V17.8027Z" fill="#FC3C3C"/>
<path d="M41.3986 15.8315H39.4324V17.8028H41.3986V15.8315Z" fill="#FC3C3C"/>
<path d="M41.3986 13.8652H39.4324V15.8315H41.3986V13.8652Z" fill="#FC3C3C"/>
<path d="M41.3986 11.8994H39.4324V13.8656H41.3986V11.8994Z" fill="#FC3C3C"/>
<path d="M41.3986 9.93311H39.4324V11.8993H41.3986V9.93311Z" fill="#FC3C3C"/>
<path d="M41.3986 7.9668H39.4324V9.93302H41.3986V7.9668Z" fill="#FC3C3C"/>
<path d="M39.4324 63.0337H37.4662V64.9999H39.4324V63.0337Z" fill="#4D850E"/>
<path d="M39.4324 61.0669H37.4662V63.0331H39.4324V61.0669Z" fill="#86AB5C"/>
<path d="M39.4324 59.1011H37.4662V61.0673H39.4324V59.1011Z" fill="#C64949"/>
<path d="M39.4324 57.1348H37.4662V59.101H39.4324V57.1348Z" fill="#C64949"/>
<path d="M39.4324 55.1685H37.4662V57.1347H39.4324V55.1685Z" fill="#C64949"/>
<path d="M39.4324 53.2017H37.4662V55.1679H39.4324V53.2017Z" fill="#C64949"/>
<path d="M39.4324 51.2354H37.4662V53.2016H39.4324V51.2354Z" fill="#C64949"/>
<path d="M39.4324 49.269H37.4662V51.2353H39.4324V49.269Z" fill="#C64949"/>
<path d="M39.4324 47.3027H37.4662V49.2689H39.4324V47.3027Z" fill="#FFF4C1"/>
<path d="M39.4324 45.3315H37.4662V47.3028H39.4324V45.3315Z" fill="#FFF4C1"/>
<path d="M39.4324 43.3652H37.4662V45.3315H39.4324V43.3652Z" fill="#C64949"/>
<path d="M39.4324 41.3989H37.4662V43.3651H39.4324V41.3989Z" fill="#C64949"/>
<path d="M39.4324 39.4321H37.4662V41.3983H39.4324V39.4321Z" fill="#FC3C3C"/>
<path d="M39.4324 37.4663H37.4662V39.4325H39.4324V37.4663Z" fill="#FC3C3C"/>
<path d="M39.4324 35.5H37.4662V37.4662H39.4324V35.5Z" fill="#FC3C3C"/>
<path d="M39.4324 33.5337H37.4662V35.4999H39.4324V33.5337Z" fill="#FC3C3C"/>
<path d="M39.4324 31.5674H37.4662V33.5336H39.4324V31.5674Z" fill="#FC3C3C"/>
<path d="M39.4324 29.6011H37.4662V31.5673H39.4324V29.6011Z" fill="#FC3C3C"/>
<path d="M39.4324 27.6348H37.4662V29.601H39.4324V27.6348Z" fill="#FC3C3C"/>
<path d="M39.4324 25.6685H37.4662V27.6347H39.4324V25.6685Z" fill="#FC3C3C"/>
<path d="M39.4324 23.7021H37.4662V25.6684H39.4324V23.7021Z" fill="#FC3C3C"/>
<path d="M39.4324 21.7363H37.4662V23.7026H39.4324V21.7363Z" fill="#FC3C3C"/>
<path d="M39.4324 19.769H37.4662V21.7353H39.4324V19.769Z" fill="#FC3C3C"/>
<path d="M39.4324 17.8027H37.4662V19.7689H39.4324V17.8027Z" fill="#FC3C3C"/>
<path d="M39.4324 15.8315H37.4662V17.8028H39.4324V15.8315Z" fill="#FC3C3C"/>
<path d="M39.4324 13.8652H37.4662V15.8315H39.4324V13.8652Z" fill="#FC3C3C"/>
<path d="M39.4324 11.8994H37.4662V13.8656H39.4324V11.8994Z" fill="#FC3C3C"/>
<path d="M39.4324 9.93311H37.4662V11.8993H39.4324V9.93311Z" fill="#FC3C3C"/>
<path d="M39.4324 7.9668H37.4662V9.93302H39.4324V7.9668Z" fill="#FC3C3C"/>
<path d="M37.4662 63.0337H35.5V64.9999H37.4662V63.0337Z" fill="#86AB5C"/>
<path d="M37.4662 61.0669H35.5V63.0331H37.4662V61.0669Z" fill="#86AB5C"/>
<path d="M37.4662 59.1011H35.5V61.0673H37.4662V59.1011Z" fill="#FFF4C1"/>
<path d="M37.4662 57.1348H35.5V59.101H37.4662V57.1348Z" fill="#FFF4C1"/>
<path d="M37.4662 55.1685H35.5V57.1347H37.4662V55.1685Z" fill="#FFF4C1"/>
<path d="M37.4662 53.2017H35.5V55.1679H37.4662V53.2017Z" fill="#FFF4C1"/>
<path d="M37.4662 51.2354H35.5V53.2016H37.4662V51.2354Z" fill="#FFF4C1"/>
<path d="M37.4662 49.269H35.5V51.2353H37.4662V49.269Z" fill="#FFF4C1"/>
<path d="M37.4662 47.3027H35.5V49.2689H37.4662V47.3027Z" fill="#FFF4C1"/>
<path d="M37.4662 45.3315H35.5V47.3028H37.4662V45.3315Z" fill="#FFF4C1"/>
<path d="M37.4662 43.3652H35.5V45.3315H37.4662V43.3652Z" fill="#FFF4C1"/>
<path d="M37.4662 41.3989H35.5V43.3651H37.4662V41.3989Z" fill="#FFF4C1"/>
<path d="M37.4662 39.4321H35.5V41.3983H37.4662V39.4321Z" fill="#C64949"/>
<path d="M37.4662 37.4663H35.5V39.4325H37.4662V37.4663Z" fill="#FC3C3C"/>
<path d="M37.4662 35.5H35.5V37.4662H37.4662V35.5Z" fill="#FC3C3C"/>
<path d="M37.4662 33.5337H35.5V35.4999H37.4662V33.5337Z" fill="#FC3C3C"/>
<path d="M37.4662 31.5674H35.5V33.5336H37.4662V31.5674Z" fill="#FC3C3C"/>
<path d="M37.4662 29.6011H35.5V31.5673H37.4662V29.6011Z" fill="#FC3C3C"/>
<path d="M37.4662 27.6348H35.5V29.601H37.4662V27.6348Z" fill="#FC3C3C"/>
<path d="M37.4662 25.6685H35.5V27.6347H37.4662V25.6685Z" fill="#FC3C3C"/>
<path d="M37.4662 23.7021H35.5V25.6684H37.4662V23.7021Z" fill="#FC3C3C"/>
<path d="M37.4662 21.7363H35.5V23.7026H37.4662V21.7363Z" fill="#FC3C3C"/>
<path d="M37.4662 19.769H35.5V21.7353H37.4662V19.769Z" fill="#FC3C3C"/>
<path d="M37.4662 17.8027H35.5V19.7689H37.4662V17.8027Z" fill="#FC3C3C"/>
<path d="M37.4662 15.8315H35.5V17.8028H37.4662V15.8315Z" fill="#FC3C3C"/>
<path d="M37.4662 13.8652H35.5V15.8315H37.4662V13.8652Z" fill="#FC3C3C"/>
<path d="M37.4662 11.8994H35.5V13.8656H37.4662V11.8994Z" fill="#FC3C3C"/>
<path d="M37.4662 9.93311H35.5V11.8993H37.4662V9.93311Z" fill="#FC3C3C"/>
<path d="M35.5 63.0337H33.5338V64.9999H35.5V63.0337Z" fill="#86AB5C"/>
<path d="M35.5 61.0669H33.5338V63.0331H35.5V61.0669Z" fill="#86AB5C"/>
<path d="M35.5 59.1011H33.5338V61.0673H35.5V59.1011Z" fill="#86AB5C"/>
<path d="M35.5 57.1348H33.5338V59.101H35.5V57.1348Z" fill="#FFF4C1"/>
<path d="M35.5 55.1685H33.5338V57.1347H35.5V55.1685Z" fill="#FFF4C1"/>
<path d="M35.5 53.2017H33.5338V55.1679H35.5V53.2017Z" fill="#FFF4C1"/>
<path d="M35.5 51.2354H33.5338V53.2016H35.5V51.2354Z" fill="#FFF4C1"/>
<path d="M35.5 49.269H33.5338V51.2353H35.5V49.269Z" fill="#FFF4C1"/>
<path d="M35.5 47.3027H33.5338V49.2689H35.5V47.3027Z" fill="#FFF4C1"/>
<path d="M35.5 45.3315H33.5338V47.3028H35.5V45.3315Z" fill="#FFF4C1"/>
<path d="M35.5 43.3652H33.5338V45.3315H35.5V43.3652Z" fill="#FFF4C1"/>
<path d="M35.5 41.3989H33.5338V43.3651H35.5V41.3989Z" fill="#FFF4C1"/>
<path d="M35.5 39.4321H33.5338V41.3983H35.5V39.4321Z" fill="#FFF4C1"/>
<path d="M35.5 37.4663H33.5338V39.4325H35.5V37.4663Z" fill="#C64949"/>
<path d="M35.5 35.5H33.5338V37.4662H35.5V35.5Z" fill="#C64949"/>
<path d="M35.5 33.5337H33.5338V35.4999H35.5V33.5337Z" fill="#FC3C3C"/>
<path d="M35.5 31.5674H33.5338V33.5336H35.5V31.5674Z" fill="#FC3C3C"/>
<path d="M35.5 29.6011H33.5338V31.5673H35.5V29.6011Z" fill="#FC3C3C"/>
<path d="M35.5 27.6348H33.5338V29.601H35.5V27.6348Z" fill="#FC3C3C"/>
<path d="M35.5 25.6685H33.5338V27.6347H35.5V25.6685Z" fill="#FC3C3C"/>
<path d="M35.5 23.7021H33.5338V25.6684H35.5V23.7021Z" fill="#FC3C3C"/>
<path d="M35.5 21.7363H33.5338V23.7026H35.5V21.7363Z" fill="#FC3C3C"/>
<path d="M35.5 19.769H33.5338V21.7353H35.5V19.769Z" fill="#FC3C3C"/>
<path d="M35.5 17.8027H33.5338V19.7689H35.5V17.8027Z" fill="#FC3C3C"/>
<path d="M35.5 15.8315H33.5338V17.8028H35.5V15.8315Z" fill="#FC3C3C"/>
<path d="M35.5 13.8652H33.5338V15.8315H35.5V13.8652Z" fill="#FC3C3C"/>
<path d="M35.5 11.8994H33.5338V13.8656H35.5V11.8994Z" fill="#FC3C3C"/>
<path d="M35.5 9.93311H33.5338V11.8993H35.5V9.93311Z" fill="#FC3C3C"/>
<path d="M33.5338 63.0337H31.5676V64.9999H33.5338V63.0337Z" fill="#86AB5C"/>
<path d="M33.5338 61.0669H31.5676V63.0331H33.5338V61.0669Z" fill="#86AB5C"/>
<path d="M33.5338 59.1011H31.5676V61.0673H33.5338V59.1011Z" fill="#86AB5C"/>
<path d="M33.5338 57.1348H31.5676V59.101H33.5338V57.1348Z" fill="#86AB5C"/>
<path d="M33.5338 55.1685H31.5676V57.1347H33.5338V55.1685Z" fill="#FFF4C1"/>
<path d="M33.5338 53.2017H31.5676V55.1679H33.5338V53.2017Z" fill="#FFF4C1"/>
<path d="M33.5338 51.2354H31.5676V53.2016H33.5338V51.2354Z" fill="#FFF4C1"/>
<path d="M33.5338 49.269H31.5676V51.2353H33.5338V49.269Z" fill="#FFF4C1"/>
<path d="M33.5338 47.3027H31.5676V49.2689H33.5338V47.3027Z" fill="#FFF4C1"/>
<path d="M33.5338 45.3315H31.5676V47.3028H33.5338V45.3315Z" fill="#FFF4C1"/>
<path d="M33.5338 43.3652H31.5676V45.3315H33.5338V43.3652Z" fill="#FFF4C1"/>
<path d="M33.5338 41.3989H31.5676V43.3651H33.5338V41.3989Z" fill="#FFF4C1"/>
<path d="M33.5338 39.4321H31.5676V41.3983H33.5338V39.4321Z" fill="#FFF4C1"/>
<path d="M33.5338 37.4663H31.5676V39.4325H33.5338V37.4663Z" fill="#FFF4C1"/>
<path d="M33.5338 35.5H31.5676V37.4662H33.5338V35.5Z" fill="#FFF4C1"/>
<path d="M33.5338 33.5337H31.5676V35.4999H33.5338V33.5337Z" fill="#C64949"/>
<path d="M33.5338 31.5674H31.5676V33.5336H33.5338V31.5674Z" fill="#FC3C3C"/>
<path d="M33.5338 29.6011H31.5676V31.5673H33.5338V29.6011Z" fill="#FC3C3C"/>
<path d="M33.5338 27.6348H31.5676V29.601H33.5338V27.6348Z" fill="#FC3C3C"/>
<path d="M33.5338 25.6685H31.5676V27.6347H33.5338V25.6685Z" fill="#FC3C3C"/>
<path d="M33.5338 23.7021H31.5676V25.6684H33.5338V23.7021Z" fill="#FC3C3C"/>
<path d="M33.5338 21.7363H31.5676V23.7026H33.5338V21.7363Z" fill="#FC3C3C"/>
<path d="M33.5338 19.769H31.5676V21.7353H33.5338V19.769Z" fill="#FC3C3C"/>
<path d="M33.5338 17.8027H31.5676V19.7689H33.5338V17.8027Z" fill="#FC3C3C"/>
<path d="M33.5338 15.8315H31.5676V17.8028H33.5338V15.8315Z" fill="#FC3C3C"/>
<path d="M33.5338 13.8652H31.5676V15.8315H33.5338V13.8652Z" fill="#FC3C3C"/>
<path d="M33.5338 11.8994H31.5676V13.8656H33.5338V11.8994Z" fill="#FC3C3C"/>
<path d="M31.5669 61.0669H29.6007V63.0331H31.5669V61.0669Z" fill="#86AB5C"/>
<path d="M31.5669 59.1011H29.6007V61.0673H31.5669V59.1011Z" fill="#86AB5C"/>
<path d="M31.5669 57.1348H29.6007V59.101H31.5669V57.1348Z" fill="#86AB5C"/>
<path d="M31.5669 55.1685H29.6007V57.1347H31.5669V55.1685Z" fill="#FFF4C1"/>
<path d="M31.5669 53.2017H29.6007V55.1679H31.5669V53.2017Z" fill="#FFF4C1"/>
<path d="M31.5669 51.2354H29.6007V53.2016H31.5669V51.2354Z" fill="#FFF4C1"/>
<path d="M31.5669 49.269H29.6007V51.2353H31.5669V49.269Z" fill="#FFF4C1"/>
<path d="M31.5669 47.3027H29.6007V49.2689H31.5669V47.3027Z" fill="#FFF4C1"/>
<path d="M31.5669 45.3315H29.6007V47.3028H31.5669V45.3315Z" fill="#FFF4C1"/>
<path d="M31.5669 43.3652H29.6007V45.3315H31.5669V43.3652Z" fill="#FFF4C1"/>
<path d="M31.5669 41.3989H29.6007V43.3651H31.5669V41.3989Z" fill="#FFF4C1"/>
<path d="M31.5669 39.4321H29.6007V41.3983H31.5669V39.4321Z" fill="#FFF4C1"/>
<path d="M31.5669 37.4663H29.6007V39.4325H31.5669V37.4663Z" fill="#FFF4C1"/>
<path d="M31.5669 35.5H29.6007V37.4662H31.5669V35.5Z" fill="#FFF4C1"/>
<path d="M31.5669 33.5337H29.6007V35.4999H31.5669V33.5337Z" fill="#FFF4C1"/>
<path d="M31.5669 31.5674H29.6007V33.5336H31.5669V31.5674Z" fill="#FFF4C1"/>
<path d="M31.5669 29.6011H29.6007V31.5673H31.5669V29.6011Z" fill="#C64949"/>
<path d="M31.5669 27.6348H29.6007V29.601H31.5669V27.6348Z" fill="#FC3C3C"/>
<path d="M31.5669 25.6685H29.6007V27.6347H31.5669V25.6685Z" fill="#FC3C3C"/>
<path d="M31.5669 23.7021H29.6007V25.6684H31.5669V23.7021Z" fill="#FC3C3C"/>
<path d="M31.5669 21.7363H29.6007V23.7026H31.5669V21.7363Z" fill="#FC3C3C"/>
<path d="M31.5669 19.769H29.6007V21.7353H31.5669V19.769Z" fill="#FC3C3C"/>
<path d="M31.5669 17.8027H29.6007V19.7689H31.5669V17.8027Z" fill="#FC3C3C"/>
<path d="M31.5669 15.8315H29.6007V17.8028H31.5669V15.8315Z" fill="#FC3C3C"/>
<path d="M31.5669 13.8652H29.6007V15.8315H31.5669V13.8652Z" fill="#FC3C3C"/>
<path d="M31.5669 11.8994H29.6007V13.8656H31.5669V11.8994Z" fill="#C64949"/>
<path d="M31.5669 9.93311H29.6007V11.8993H31.5669V9.93311Z" fill="#C64949"/>
<path d="M31.5669 7.9668H29.6007V9.93302H31.5669V7.9668Z" fill="#FC3C3C"/>
<path d="M29.6007 61.0669H27.6345V63.0331H29.6007V61.0669Z" fill="#86AB5C"/>
<path d="M29.6007 59.1011H27.6345V61.0673H29.6007V59.1011Z" fill="#86AB5C"/>
<path d="M29.6007 57.1348H27.6345V59.101H29.6007V57.1348Z" fill="#86AB5C"/>
<path d="M29.6007 55.1685H27.6345V57.1347H29.6007V55.1685Z" fill="#FFF4C1"/>
<path d="M29.6007 53.2017H27.6345V55.1679H29.6007V53.2017Z" fill="#FFF4C1"/>
<path d="M29.6007 51.2354H27.6345V53.2016H29.6007V51.2354Z" fill="#FFF4C1"/>
<path d="M29.6007 49.269H27.6345V51.2353H29.6007V49.269Z" fill="#FFF4C1"/>
<path d="M29.6007 47.3027H27.6345V49.2689H29.6007V47.3027Z" fill="#FFF4C1"/>
<path d="M29.6007 45.3315H27.6345V47.3028H29.6007V45.3315Z" fill="#FFF4C1"/>
<path d="M29.6007 43.3652H27.6345V45.3315H29.6007V43.3652Z" fill="#FFF4C1"/>
<path d="M29.6007 41.3989H27.6345V43.3651H29.6007V41.3989Z" fill="#FFF4C1"/>
<path d="M29.6007 39.4321H27.6345V41.3983H29.6007V39.4321Z" fill="#FFF4C1"/>
<path d="M29.6007 37.4663H27.6345V39.4325H29.6007V37.4663Z" fill="#FFF4C1"/>
<path d="M29.6007 35.5H27.6345V37.4662H29.6007V35.5Z" fill="#FFF4C1"/>
<path d="M29.6007 33.5337H27.6345V35.4999H29.6007V33.5337Z" fill="#FFF4C1"/>
<path d="M29.6007 31.5674H27.6345V33.5336H29.6007V31.5674Z" fill="#FFF4C1"/>
<path d="M29.6007 29.6011H27.6345V31.5673H29.6007V29.6011Z" fill="#FFF4C1"/>
<path d="M29.6007 27.6348H27.6345V29.601H29.6007V27.6348Z" fill="#C64949"/>
<path d="M29.6007 25.6685H27.6345V27.6347H29.6007V25.6685Z" fill="#FC3C3C"/>
<path d="M29.6007 23.7021H27.6345V25.6684H29.6007V23.7021Z" fill="#FC3C3C"/>
<path d="M29.6007 21.7363H27.6345V23.7026H29.6007V21.7363Z" fill="#FC3C3C"/>
<path d="M29.6007 19.769H27.6345V21.7353H29.6007V19.769Z" fill="#FC3C3C"/>
<path d="M29.6007 17.8027H27.6345V19.7689H29.6007V17.8027Z" fill="#FC3C3C"/>
<path d="M29.6007 15.8315H27.6345V17.8028H29.6007V15.8315Z" fill="#FC3C3C"/>
<path d="M29.6007 13.8652H27.6345V15.8315H29.6007V13.8652Z" fill="#C64949"/>
<path d="M29.6007 11.8994H27.6345V13.8656H29.6007V11.8994Z" fill="#C64949"/>
<path d="M29.6007 9.93311H27.6345V11.8993H29.6007V9.93311Z" fill="#FC3C3C"/>
<path d="M29.6007 7.9668H27.6345V9.93302H29.6007V7.9668Z" fill="#FC3C3C"/>
<path d="M27.6345 59.1011H25.6632V61.0673H27.6345V59.1011Z" fill="#86AB5C"/>
<path d="M27.6345 57.1348H25.6632V59.101H27.6345V57.1348Z" fill="#86AB5C"/>
<path d="M27.6345 55.1685H25.6632V57.1347H27.6345V55.1685Z" fill="#C64949"/>
<path d="M27.6345 53.2017H25.6632V55.1679H27.6345V53.2017Z" fill="#C64949"/>
<path d="M27.6345 51.2354H25.6632V53.2016H27.6345V51.2354Z" fill="#C64949"/>
<path d="M27.6345 49.269H25.6632V51.2353H27.6345V49.269Z" fill="#C64949"/>
<path d="M27.6345 47.3027H25.6632V49.2689H27.6345V47.3027Z" fill="#C64949"/>
<path d="M27.6345 45.3315H25.6632V47.3028H27.6345V45.3315Z" fill="#C64949"/>
<path d="M27.6345 43.3652H25.6632V45.3315H27.6345V43.3652Z" fill="#FFF4C1"/>
<path d="M27.6345 41.3989H25.6632V43.3651H27.6345V41.3989Z" fill="#FFF4C1"/>
<path d="M27.6345 39.4321H25.6632V41.3983H27.6345V39.4321Z" fill="#FFF4C1"/>
<path d="M27.6345 37.4663H25.6632V39.4325H27.6345V37.4663Z" fill="#FFF4C1"/>
<path d="M27.6345 35.5H25.6632V37.4662H27.6345V35.5Z" fill="#C64949"/>
<path d="M27.6345 33.5337H25.6632V35.4999H27.6345V33.5337Z" fill="#C64949"/>
<path d="M27.6345 31.5674H25.6632V33.5336H27.6345V31.5674Z" fill="#FFF4C1"/>
<path d="M27.6345 29.6011H25.6632V31.5673H27.6345V29.6011Z" fill="#FFF4C1"/>
<path d="M27.6345 27.6348H25.6632V29.601H27.6345V27.6348Z" fill="#FFF4C1"/>
<path d="M27.6345 25.6685H25.6632V27.6347H27.6345V25.6685Z" fill="#C64949"/>
<path d="M27.6345 23.7021H25.6632V25.6684H27.6345V23.7021Z" fill="#C64949"/>
<path d="M27.6345 21.7363H25.6632V23.7026H27.6345V21.7363Z" fill="#FC3C3C"/>
<path d="M27.6345 19.769H25.6632V21.7353H27.6345V19.769Z" fill="#FC3C3C"/>
<path d="M27.6345 17.8027H25.6632V19.7689H27.6345V17.8027Z" fill="#FC3C3C"/>
<path d="M27.6345 15.8315H25.6632V17.8028H27.6345V15.8315Z" fill="#FC3C3C"/>
<path d="M27.6345 13.8652H25.6632V15.8315H27.6345V13.8652Z" fill="#C64949"/>
<path d="M27.6345 11.8994H25.6632V13.8656H27.6345V11.8994Z" fill="#C64949"/>
<path d="M27.6345 9.93311H25.6632V11.8993H27.6345V9.93311Z" fill="#FC3C3C"/>
<path d="M27.6345 7.9668H25.6632V9.93302H27.6345V7.9668Z" fill="#C64949"/>
<path d="M25.6632 59.1011H23.697V61.0673H25.6632V59.1011Z" fill="#86AB5C"/>
<path d="M25.6632 57.1348H23.697V59.101H25.6632V57.1348Z" fill="#86AB5C"/>
<path d="M25.6632 55.1685H23.697V57.1347H25.6632V55.1685Z" fill="#86AB5C"/>
<path d="M25.6632 53.2017H23.697V55.1679H25.6632V53.2017Z" fill="#C64949"/>
<path d="M25.6632 51.2354H23.697V53.2016H25.6632V51.2354Z" fill="#C64949"/>
<path d="M25.6632 49.269H23.697V51.2353H25.6632V49.269Z" fill="#C64949"/>
<path d="M25.6632 47.3027H23.697V49.2689H25.6632V47.3027Z" fill="#C64949"/>
<path d="M25.6632 45.3315H23.697V47.3028H25.6632V45.3315Z" fill="#C64949"/>
<path d="M25.6632 43.3652H23.697V45.3315H25.6632V43.3652Z" fill="#C64949"/>
<path d="M25.6632 41.3989H23.697V43.3651H25.6632V41.3989Z" fill="#FFF4C1"/>
<path d="M25.6632 39.4321H23.697V41.3983H25.6632V39.4321Z" fill="#FFF4C1"/>
<path d="M25.6632 37.4663H23.697V39.4325H25.6632V37.4663Z" fill="#FFF4C1"/>
<path d="M25.6632 35.5H23.697V37.4662H25.6632V35.5Z" fill="#C64949"/>
<path d="M25.6632 33.5337H23.697V35.4999H25.6632V33.5337Z" fill="#C64949"/>
<path d="M25.6632 31.5674H23.697V33.5336H25.6632V31.5674Z" fill="#C64949"/>
<path d="M25.6632 29.6011H23.697V31.5673H25.6632V29.6011Z" fill="#FFF4C1"/>
<path d="M25.6632 27.6348H23.697V29.601H25.6632V27.6348Z" fill="#FFF4C1"/>
<path d="M25.6632 25.6685H23.697V27.6347H25.6632V25.6685Z" fill="#FFF4C1"/>
<path d="M25.6632 23.7021H23.697V25.6684H25.6632V23.7021Z" fill="#C64949"/>
<path d="M25.6632 21.7363H23.697V23.7026H25.6632V21.7363Z" fill="#C64949"/>
<path d="M25.6632 19.769H23.697V21.7353H25.6632V19.769Z" fill="#FC3C3C"/>
<path d="M25.6632 17.8027H23.697V19.7689H25.6632V17.8027Z" fill="#FC3C3C"/>
<path d="M25.6632 15.8315H23.697V17.8028H25.6632V15.8315Z" fill="#C64949"/>
<path d="M25.6632 13.8652H23.697V15.8315H25.6632V13.8652Z" fill="#C64949"/>
<path d="M25.6632 11.8994H23.697V13.8656H25.6632V11.8994Z" fill="#C64949"/>
<path d="M25.6632 9.93311H23.697V11.8993H25.6632V9.93311Z" fill="#FC3C3C"/>
<path d="M25.6632 7.9668H23.697V9.93302H25.6632V7.9668Z" fill="#C64949"/>
<path d="M23.697 59.1011H21.7308V61.0673H23.697V59.1011Z" fill="#86AB5C"/>
<path d="M23.697 57.1348H21.7308V59.101H23.697V57.1348Z" fill="#86AB5C"/>
<path d="M23.697 55.1685H21.7308V57.1347H23.697V55.1685Z" fill="#86AB5C"/>
<path d="M23.697 53.2017H21.7308V55.1679H23.697V53.2017Z" fill="#86AB5C"/>
<path d="M23.697 51.2354H21.7308V53.2016H23.697V51.2354Z" fill="#C64949"/>
<path d="M23.697 49.269H21.7308V51.2353H23.697V49.269Z" fill="#C64949"/>
<path d="M23.697 47.3027H21.7308V49.2689H23.697V47.3027Z" fill="#C64949"/>
<path d="M23.697 45.3315H21.7308V47.3028H23.697V45.3315Z" fill="#C64949"/>
<path d="M23.697 43.3652H21.7308V45.3315H23.697V43.3652Z" fill="#C64949"/>
<path d="M23.697 41.3989H21.7308V43.3651H23.697V41.3989Z" fill="#FFF4C1"/>
<path d="M23.697 39.4321H21.7308V41.3983H23.697V39.4321Z" fill="#FFF4C1"/>
<path d="M23.697 37.4663H21.7308V39.4325H23.697V37.4663Z" fill="#FFF4C1"/>
<path d="M23.697 35.5H21.7308V37.4662H23.697V35.5Z" fill="#FFF4C1"/>
<path d="M23.697 33.5337H21.7308V35.4999H23.697V33.5337Z" fill="#C64949"/>
<path d="M23.697 31.5674H21.7308V33.5336H23.697V31.5674Z" fill="#C64949"/>
<path d="M23.697 29.6011H21.7308V31.5673H23.697V29.6011Z" fill="#FFF4C1"/>
<path d="M23.697 27.6348H21.7308V29.601H23.697V27.6348Z" fill="#FFF4C1"/>
<path d="M23.697 25.6685H21.7308V27.6347H23.697V25.6685Z" fill="#FFF4C1"/>
<path d="M23.697 23.7021H21.7308V25.6684H23.697V23.7021Z" fill="#C64949"/>
<path d="M23.697 21.7363H21.7308V23.7026H23.697V21.7363Z" fill="#FC3C3C"/>
<path d="M23.697 19.769H21.7308V21.7353H23.697V19.769Z" fill="#FC3C3C"/>
<path d="M23.697 17.8027H21.7308V19.7689H23.697V17.8027Z" fill="#FC3C3C"/>
<path d="M23.697 15.8315H21.7308V17.8028H23.697V15.8315Z" fill="#C64949"/>
<path d="M23.697 13.8652H21.7308V15.8315H23.697V13.8652Z" fill="#C64949"/>
<path d="M23.697 11.8994H21.7308V13.8656H23.697V11.8994Z" fill="#C64949"/>
<path d="M23.697 9.93311H21.7308V11.8993H23.697V9.93311Z" fill="#FC3C3C"/>
<path d="M23.697 7.9668H21.7308V9.93302H23.697V7.9668Z" fill="#C64949"/>
<path d="M21.7309 57.1348H19.7646V59.101H21.7309V57.1348Z" fill="#86AB5C"/>
<path d="M21.7309 55.1685H19.7646V57.1347H21.7309V55.1685Z" fill="#86AB5C"/>
<path d="M21.7309 53.2017H19.7646V55.1679H21.7309V53.2017Z" fill="#86AB5C"/>
<path d="M21.7309 51.2354H19.7646V53.2016H21.7309V51.2354Z" fill="#FFF4C1"/>
<path d="M21.7309 49.269H19.7646V51.2353H21.7309V49.269Z" fill="#FFF4C1"/>
<path d="M21.7309 47.3027H19.7646V49.2689H21.7309V47.3027Z" fill="#FFF4C1"/>
<path d="M21.7309 45.3315H19.7646V47.3028H21.7309V45.3315Z" fill="#FFF4C1"/>
<path d="M21.7309 43.3652H19.7646V45.3315H21.7309V43.3652Z" fill="#FFF4C1"/>
<path d="M21.7309 41.3989H19.7646V43.3651H21.7309V41.3989Z" fill="#FFF4C1"/>
<path d="M21.7309 39.4321H19.7646V41.3983H21.7309V39.4321Z" fill="#FFF4C1"/>
<path d="M21.7309 37.4663H19.7646V39.4325H21.7309V37.4663Z" fill="#FFF4C1"/>
<path d="M21.7309 35.5H19.7646V37.4662H21.7309V35.5Z" fill="#FFF4C1"/>
<path d="M21.7309 33.5337H19.7646V35.4999H21.7309V33.5337Z" fill="#FFF4C1"/>
<path d="M21.7309 31.5674H19.7646V33.5336H21.7309V31.5674Z" fill="#FFF4C1"/>
<path d="M21.7309 29.6011H19.7646V31.5673H21.7309V29.6011Z" fill="#FFF4C1"/>
<path d="M21.7309 27.6348H19.7646V29.601H21.7309V27.6348Z" fill="#FFF4C1"/>
<path d="M21.7309 25.6685H19.7646V27.6347H21.7309V25.6685Z" fill="#C64949"/>
<path d="M21.7309 23.7021H19.7646V25.6684H21.7309V23.7021Z" fill="#C64949"/>
<path d="M21.7309 21.7363H19.7646V23.7026H21.7309V21.7363Z" fill="#FC3C3C"/>
<path d="M21.7309 19.769H19.7646V21.7353H21.7309V19.769Z" fill="#FC3C3C"/>
<path d="M21.7309 17.8027H19.7646V19.7689H21.7309V17.8027Z" fill="#C64949"/>
<path d="M21.7309 15.8315H19.7646V17.8028H21.7309V15.8315Z" fill="#C64949"/>
<path d="M21.7309 13.8652H19.7646V15.8315H21.7309V13.8652Z" fill="#C64949"/>
<path d="M21.7309 11.8994H19.7646V13.8656H21.7309V11.8994Z" fill="#C64949"/>
<path d="M21.7309 9.93311H19.7646V11.8993H21.7309V9.93311Z" fill="#FC3C3C"/>
<path d="M21.7309 7.9668H19.7646V9.93302H21.7309V7.9668Z" fill="#FC3C3C"/>
<path d="M19.7647 57.1348H17.7985V59.101H19.7647V57.1348Z" fill="#86AB5C"/>
<path d="M19.7647 55.1685H17.7985V57.1347H19.7647V55.1685Z" fill="#86AB5C"/>
<path d="M19.7647 53.2017H17.7985V55.1679H19.7647V53.2017Z" fill="#86AB5C"/>
<path d="M19.7647 51.2354H17.7985V53.2016H19.7647V51.2354Z" fill="#86AB5C"/>
<path d="M19.7647 49.269H17.7985V51.2353H19.7647V49.269Z" fill="#FFF4C1"/>
<path d="M19.7647 47.3027H17.7985V49.2689H19.7647V47.3027Z" fill="#FFF4C1"/>
<path d="M19.7647 45.3315H17.7985V47.3028H19.7647V45.3315Z" fill="#FFF4C1"/>
<path d="M19.7647 43.3652H17.7985V45.3315H19.7647V43.3652Z" fill="#FFF4C1"/>
<path d="M19.7647 41.3989H17.7985V43.3651H19.7647V41.3989Z" fill="#FFF4C1"/>
<path d="M19.7647 39.4321H17.7985V41.3983H19.7647V39.4321Z" fill="#FFF4C1"/>
<path d="M19.7647 37.4663H17.7985V39.4325H19.7647V37.4663Z" fill="#FFF4C1"/>
<path d="M19.7647 35.5H17.7985V37.4662H19.7647V35.5Z" fill="#FFF4C1"/>
<path d="M19.7647 33.5337H17.7985V35.4999H19.7647V33.5337Z" fill="#FFF4C1"/>
<path d="M19.7647 31.5674H17.7985V33.5336H19.7647V31.5674Z" fill="#FFF4C1"/>
<path d="M19.7647 29.6011H17.7985V31.5673H19.7647V29.6011Z" fill="#FFF4C1"/>
<path d="M19.7647 27.6348H17.7985V29.601H19.7647V27.6348Z" fill="#C64949"/>
<path d="M19.7647 25.6685H17.7985V27.6347H19.7647V25.6685Z" fill="#C64949"/>
<path d="M19.7647 23.7021H17.7985V25.6684H19.7647V23.7021Z" fill="#FC3C3C"/>
<path d="M19.7647 21.7363H17.7985V23.7026H19.7647V21.7363Z" fill="#FC3C3C"/>
<path d="M17.7979 55.1685H15.8317V57.1347H17.7979V55.1685Z" fill="#86AB5C"/>
<path d="M17.7979 53.2017H15.8317V55.1679H17.7979V53.2017Z" fill="#86AB5C"/>
<path d="M17.7979 51.2354H15.8317V53.2016H17.7979V51.2354Z" fill="#86AB5C"/>
<path d="M17.7979 49.269H15.8317V51.2353H17.7979V49.269Z" fill="#FFF4C1"/>
<path d="M17.7979 47.3027H15.8317V49.2689H17.7979V47.3027Z" fill="#FFF4C1"/>
<path d="M17.7979 45.3315H15.8317V47.3028H17.7979V45.3315Z" fill="#FFF4C1"/>
<path d="M17.7979 43.3652H15.8317V45.3315H17.7979V43.3652Z" fill="#FFF4C1"/>
<path d="M17.7979 41.3989H15.8317V43.3651H17.7979V41.3989Z" fill="#FFF4C1"/>
<path d="M17.7979 39.4321H15.8317V41.3983H17.7979V39.4321Z" fill="#FFF4C1"/>
<path d="M17.7979 37.4663H15.8317V39.4325H17.7979V37.4663Z" fill="#FFF4C1"/>
<path d="M17.7979 35.5H15.8317V37.4662H17.7979V35.5Z" fill="#FFF4C1"/>
<path d="M17.7979 33.5337H15.8317V35.4999H17.7979V33.5337Z" fill="#FFF4C1"/>
<path d="M17.7979 31.5674H15.8317V33.5336H17.7979V31.5674Z" fill="#FFF4C1"/>
<path d="M17.7979 29.6011H15.8317V31.5673H17.7979V29.6011Z" fill="#FFF4C1"/>
<path d="M17.7979 27.6348H15.8317V29.601H17.7979V27.6348Z" fill="#C64949"/>
<path d="M17.7979 25.6685H15.8317V27.6347H17.7979V25.6685Z" fill="#FC3C3C"/>
<path d="M17.7979 23.7021H15.8317V25.6684H17.7979V23.7021Z" fill="#FC3C3C"/>
<path d="M17.7979 21.7363H15.8317V23.7026H17.7979V21.7363Z" fill="#FC3C3C"/>
<path d="M15.8316 53.2017H13.8654V55.1679H15.8316V53.2017Z" fill="#86AB5C"/>
<path d="M15.8316 51.2354H13.8654V53.2016H15.8316V51.2354Z" fill="#86AB5C"/>
<path d="M15.8316 49.269H13.8654V51.2353H15.8316V49.269Z" fill="#86AB5C"/>
<path d="M15.8316 47.3027H13.8654V49.2689H15.8316V47.3027Z" fill="#FFF4C1"/>
<path d="M15.8316 45.3315H13.8654V47.3028H15.8316V45.3315Z" fill="#FFF4C1"/>
<path d="M15.8316 43.3652H13.8654V45.3315H15.8316V43.3652Z" fill="#FFF4C1"/>
<path d="M15.8316 41.3989H13.8654V43.3651H15.8316V41.3989Z" fill="#FFF4C1"/>
<path d="M15.8316 39.4321H13.8654V41.3983H15.8316V39.4321Z" fill="#FFF4C1"/>
<path d="M15.8316 37.4663H13.8654V39.4325H15.8316V37.4663Z" fill="#FFF4C1"/>
<path d="M15.8316 35.5H13.8654V37.4662H15.8316V35.5Z" fill="#FFF4C1"/>
<path d="M15.8316 33.5337H13.8654V35.4999H15.8316V33.5337Z" fill="#FFF4C1"/>
<path d="M15.8316 31.5674H13.8654V33.5336H15.8316V31.5674Z" fill="#FFF4C1"/>
<path d="M15.8316 29.6011H13.8654V31.5673H15.8316V29.6011Z" fill="#C64949"/>
<path d="M15.8316 27.6348H13.8654V29.601H15.8316V27.6348Z" fill="#FC3C3C"/>
<path d="M15.8316 25.6685H13.8654V27.6347H15.8316V25.6685Z" fill="#FC3C3C"/>
<path d="M15.8316 23.7021H13.8654V25.6684H15.8316V23.7021Z" fill="#FC3C3C"/>
<path d="M13.8654 53.2017H11.8992V55.1679H13.8654V53.2017Z" fill="#86AB5C"/>
<path d="M13.8654 51.2354H11.8992V53.2016H13.8654V51.2354Z" fill="#86AB5C"/>
<path d="M13.8654 49.269H11.8992V51.2353H13.8654V49.269Z" fill="#86AB5C"/>
<path d="M13.8654 47.3027H11.8992V49.2689H13.8654V47.3027Z" fill="#FFF4C1"/>
<path d="M13.8654 45.3315H11.8992V47.3028H13.8654V45.3315Z" fill="#FFF4C1"/>
<path d="M13.8654 43.3652H11.8992V45.3315H13.8654V43.3652Z" fill="#FFF4C1"/>
<path d="M13.8654 41.3989H11.8992V43.3651H13.8654V41.3989Z" fill="#FFF4C1"/>
<path d="M13.8654 39.4321H11.8992V41.3983H13.8654V39.4321Z" fill="#FFF4C1"/>
<path d="M13.8654 37.4663H11.8992V39.4325H13.8654V37.4663Z" fill="#FFF4C1"/>
<path d="M13.8654 35.5H11.8992V37.4662H13.8654V35.5Z" fill="#FFF4C1"/>
<path d="M13.8654 33.5337H11.8992V35.4999H13.8654V33.5337Z" fill="#FFF4C1"/>
<path d="M13.8654 31.5674H11.8992V33.5336H13.8654V31.5674Z" fill="#FFF4C1"/>
<path d="M13.8654 29.6011H11.8992V31.5673H13.8654V29.6011Z" fill="#C64949"/>
<path d="M13.8654 27.6348H11.8992V29.601H13.8654V27.6348Z" fill="#FC3C3C"/>
<path d="M13.8654 25.6685H11.8992V27.6347H13.8654V25.6685Z" fill="#FC3C3C"/>
<path d="M11.8992 53.2017H9.93298V55.1679H11.8992V53.2017Z" fill="#86AB5C"/>
<path d="M11.8992 51.2354H9.93298V53.2016H11.8992V51.2354Z" fill="#86AB5C"/>
<path d="M11.8992 49.269H9.93298V51.2353H11.8992V49.269Z" fill="#86AB5C"/>
<path d="M11.8992 47.3027H9.93298V49.2689H11.8992V47.3027Z" fill="#86AB5C"/>
<path d="M11.8992 45.3315H9.93298V47.3028H11.8992V45.3315Z" fill="#FFF4C1"/>
<path d="M11.8992 43.3652H9.93298V45.3315H11.8992V43.3652Z" fill="#FFF4C1"/>
<path d="M11.8992 41.3989H9.93298V43.3651H11.8992V41.3989Z" fill="#FFF4C1"/>
<path d="M11.8992 39.4321H9.93298V41.3983H11.8992V39.4321Z" fill="#FFF4C1"/>
<path d="M11.8992 37.4663H9.93298V39.4325H11.8992V37.4663Z" fill="#FFF4C1"/>
<path d="M11.8992 35.5H9.93298V37.4662H11.8992V35.5Z" fill="#FFF4C1"/>
<path d="M11.8992 33.5337H9.93298V35.4999H11.8992V33.5337Z" fill="#FFF4C1"/>
<path d="M11.8992 31.5674H9.93298V33.5336H11.8992V31.5674Z" fill="#C64949"/>
<path d="M11.8992 29.6011H9.93298V31.5673H11.8992V29.6011Z" fill="#FC3C3C"/>
<path d="M11.8992 27.6348H9.93298V29.601H11.8992V27.6348Z" fill="#FC3C3C"/>
<path d="M9.9324 51.2354H7.96619V53.2016H9.9324V51.2354Z" fill="#86AB5C"/>
<path d="M9.9324 49.269H7.96619V51.2353H9.9324V49.269Z" fill="#86AB5C"/>
<path d="M9.9324 47.3027H7.96619V49.2689H9.9324V47.3027Z" fill="#86AB5C"/>
<path d="M9.9324 31.5674H7.96619V33.5336H9.9324V31.5674Z" fill="#FC3C3C"/>
<path d="M9.9324 29.6011H7.96619V31.5673H9.9324V29.6011Z" fill="#FC3C3C"/>
<path d="M7.96621 49.269H6V51.2353H7.96621V49.269Z" fill="#86AB5C"/>
</svg>
