<svg width="338" height="127" viewBox="0 0 338 127" fill="none" xmlns="http://www.w3.org/2000/svg">
<rect x="6" y="1.34668" width="325" height="123.894" rx="18" fill="#68524E"/>
<g opacity="0.3">
<path d="M9.94068 8.53711H3.49365V118.858H9.94068V8.53711Z" fill="#68524E"/>
<path d="M324.942 0.707031H16.5508V4.62202H324.942V0.707031Z" fill="#68524E"/>
<path d="M327.242 123.051H16.3038V126.587H327.242V123.051Z" fill="#68524E"/>
<path d="M16.5507 4.62207H10.1038V8.53706H16.5507V4.62207Z" fill="#68524E"/>
<path d="M16.5507 118.858H10.1038V122.773H16.5507V118.858Z" fill="#68524E"/>
<path d="M338 8.53711H331.554V118.858H338V8.53711Z" fill="#68524E"/>
<path d="M331.39 4.62207H324.944V8.53706H331.39V4.62207Z" fill="#68524E"/>
<path d="M331.39 118.858H324.944V122.773H331.39V118.858Z" fill="#68524E"/>
</g>
<path d="M6.44702 7.82959H0V118.15H6.44702V7.82959Z" fill="#68524E"/>
<path d="M321.448 0H13.0571V3.91499H321.448V0Z" fill="#68524E"/>
<path d="M323.748 122.343H12.8102V125.879H323.748V122.343Z" fill="#68524E"/>
<path d="M13.0571 3.91504H6.61011V7.83003H13.0571V3.91504Z" fill="#68524E"/>
<path d="M13.0571 118.151H6.61011V122.066H13.0571V118.151Z" fill="#68524E"/>
<path d="M334.506 7.82959H328.06V118.15H334.506V7.82959Z" fill="#68524E"/>
<path d="M327.896 3.91504H321.45V7.83003H327.896V3.91504Z" fill="#68524E"/>
<path d="M327.896 118.151H321.45V122.066H327.896V118.151Z" fill="#68524E"/>
</svg>
