<svg width="93" height="93" viewBox="0 0 93 93" fill="none" xmlns="http://www.w3.org/2000/svg">
<path d="M24.137 16H69.596V20.13H73.733V24.267H77.999V69.733H73.733V73.862H69.596V78H24.137V73.862H20V69.733H16V24.267H20V20.13H24.137V16Z" fill="#BCC9DD"/>
<path d="M69.596 24.2666H73.733V28.3966H77.999V69.7326H73.733V73.8616H69.596V77.9996H24.137V73.8616H65.466V69.7326H69.596V24.2666Z" fill="#97A8C2"/>
<path d="M24.137 69.7334H69.596V73.8624H24.137V69.7334Z" fill="#BFCBE0"/>
<path d="M24.137 20.1299H65.466V24.2669H69.596V28.3969H73.733V65.5959H69.596V69.7329H24.137V65.5959H20V28.3969H24.137V20.1299Z" fill="#F9FAFF"/>
<path d="M24.137 24.2666H28.267V28.3966H24.137V65.5956H20V28.3966H24.137V24.2666Z" fill="#E6ECF8"/>
<path d="M28.267 20.1299H61.336V24.2669H28.267V20.1299Z" fill="white"/>
<path d="M69.596 28.3965H73.733V65.5955H69.596V28.3965Z" fill="#D7E0F0"/>
<path d="M24.137 61.4658H69.596V69.7328H24.137V61.4658Z" fill="#E8EDF7"/>
<path d="M28.267 28.3965H65.466V53.1975H61.336V57.3275H32.397V53.1975H28.267V28.3965Z" fill="#56585B"/>
<path d="M61.336 32.5342H32.397V49.0612H61.336V32.5342Z" fill="#F8FBFF"/>
<path d="M61.336 32.5342H36.534V44.9312H61.336V32.5342Z" fill="#DCEBFF"/>
<path d="M48.931 32.5342H40.664V40.8012H48.931V32.5342Z" fill="#FFB67A"/>
<path d="M48.931 32.5342H44.802V36.6632H48.931V32.5342Z" fill="#FFE6BD"/>
<path d="M40.664 32.5342H36.534V36.6632H40.664V32.5342Z" fill="#F7FBFF"/>
<path d="M61.336 32.5342H48.931V36.6632H61.336V32.5342Z" fill="#F7FBFF"/>
<path d="M32.397 44.9311H36.534V40.7941H40.664V36.6641H44.802V40.7941H48.931V44.9311H61.336V49.0611H32.397V44.9311Z" fill="#77C66B"/>
<path d="M40.664 44.9311H44.802V40.7941H48.931V36.6641H53.069V40.7941H57.199V44.9311H61.336V49.0611H40.664V44.9311Z" fill="#3FA85A"/>
<path d="M32.397 49.0615H61.336V53.1985H32.397V49.0615Z" fill="#218346"/>
<path d="M36.534 44.9307H32.397V49.0607H36.534V44.9307Z" fill="#9BDD7D"/>
<path d="M61.336 40.7939H57.199V44.9309H61.336V40.7939Z" fill="#8CD778"/>
<path d="M36.534 53.1982H44.802V61.4662H40.664V65.5962H36.534V69.7332H32.397V65.5962H36.534V61.4662H32.397V57.3282H36.534V53.1982Z" fill="#56585B"/>
<path d="M48.931 53.1982H57.199V57.3282H61.336V61.4662H57.199V65.5962H61.336V69.7332H57.199V65.5962H53.069V61.4662H48.931V53.1982Z" fill="#56585B"/>
<path d="M53.069 61.4658H40.664V65.5958H53.069V61.4658Z" fill="#56585B"/>
<path d="M48.931 65.5957H44.802V73.8617H48.931V65.5957Z" fill="#56585B"/>
<path d="M53.069 69.7334H40.664V73.8624H53.069V69.7334Z" fill="#BFCBE0"/>
<path d="M40.664 61.4658H36.534V65.5958H40.664V61.4658Z" fill="white"/>
<path d="M57.199 61.4658H53.069V65.5958H57.199V61.4658Z" fill="white"/>
<path d="M48.931 65.5957H44.802V69.7327H48.931V65.5957Z" fill="white"/>
<rect x="61.313" y="53.1631" width="4.1453" height="4.1453" fill="#56585B"/>
<rect x="28.2677" y="57.3086" width="37.1906" height="4.1453" fill="#F9FAFF"/>
<rect x="28.2677" y="53.1631" width="4.1453" height="4.1453" fill="#56585B"/>
<rect x="44.7786" y="57.3086" width="4.1453" height="4.1453" fill="#56585B"/>
<rect x="44.7786" y="65.6221" width="4.1453" height="4.1453" fill="#E8EDF7"/>
<rect x="36.5349" y="61.4766" width="4.1453" height="4.1453" fill="#56585B"/>
<rect x="53.0458" y="61.4766" width="4.1453" height="4.1453" fill="#56585B"/>
</svg>
