<svg width="30" height="30" viewBox="0 0 30 30" fill="none" xmlns="http://www.w3.org/2000/svg">
<path d="M25.9997 12.4995H24.5012V14.0005H25.9997V12.4995Z" fill="#DEDEDE"/>
<path d="M25.9997 10.998H24.5012V12.499H25.9997V10.998Z" fill="#DEDEDE"/>
<path d="M25.9997 9.5H24.5012V10.9985H25.9997V9.5Z" fill="#8AA88B"/>
<path d="M25.9997 7.99902H24.5012V9.50002H25.9997V7.99902Z" fill="#8AA88B"/>
<path d="M24.5012 15.4985H23.0002V16.9995H24.5012V15.4985Z" fill="#DEDEDE"/>
<path d="M24.5012 14.0005H23.0002V15.499H24.5012V14.0005Z" fill="#DEDEDE"/>
<path d="M24.5012 12.4995H23.0002V14.0005H24.5012V12.4995Z" fill="#C0D6C0"/>
<path d="M24.5012 10.998H23.0002V12.499H24.5012V10.998Z" fill="#C0D6C0"/>
<path d="M24.5012 9.5H23.0002V10.9985H24.5012V9.5Z" fill="#8AA88B"/>
<path d="M23.0003 16.9995H21.4993V18.498H23.0003V16.9995Z" fill="#DEDEDE"/>
<path d="M23.0003 15.4985H21.4993V16.9995H23.0003V15.4985Z" fill="#DEDEDE"/>
<path d="M23.0003 14.0005H21.4993V15.499H23.0003V14.0005Z" fill="#DEDEDE"/>
<path d="M23.0003 12.4995H21.4993V14.0005H23.0003V12.4995Z" fill="#C0D6C0"/>
<path d="M23.0003 10.998H21.4993V12.499H23.0003V10.998Z" fill="#8AA88B"/>
<path d="M21.4993 16.9995H20.0009V18.498H21.4993V16.9995Z" fill="#DEDEDE"/>
<path d="M21.4993 15.4985H20.0009V16.9995H21.4993V15.4985Z" fill="#DEDEDE"/>
<path d="M21.4993 14.0005H20.0009V15.499H21.4993V14.0005Z" fill="#DEDEDE"/>
<path d="M21.4993 12.4995H20.0009V14.0005H21.4993V12.4995Z" fill="#C0D6C0"/>
<path d="M21.4993 10.998H20.0009V12.499H21.4993V10.998Z" fill="#8AA88B"/>
<path d="M20.0008 18.498H18.4998V19.999H20.0008V18.498Z" fill="#DEDEDE"/>
<path d="M20.0008 16.9995H18.4998V18.498H20.0008V16.9995Z" fill="#DEDEDE"/>
<path d="M20.0008 15.4985H18.4998V16.9995H20.0008V15.4985Z" fill="#DEDEDE"/>
<path d="M20.0008 14.0005H18.4998V15.499H20.0008V14.0005Z" fill="#DEDEDE"/>
<path d="M20.0008 12.4995H18.4998V14.0005H20.0008V12.4995Z" fill="#C0D6C0"/>
<path d="M20.0008 10.998H18.4998V12.499H20.0008V10.998Z" fill="#8AA88B"/>
<path d="M18.4998 18.498H17.0013V19.999H18.4998V18.498Z" fill="#DEDEDE"/>
<path d="M18.4998 16.9995H17.0013V18.498H18.4998V16.9995Z" fill="#DEDEDE"/>
<path d="M18.4998 15.4985H17.0013V16.9995H18.4998V15.4985Z" fill="#DEDEDE"/>
<path d="M18.4998 14.0005H17.0013V15.499H18.4998V14.0005Z" fill="#DEDEDE"/>
<path d="M18.4998 12.4995H17.0013V14.0005H18.4998V12.4995Z" fill="#C0D6C0"/>
<path d="M18.4998 10.998H17.0013V12.499H18.4998V10.998Z" fill="#C0D6C0"/>
<path d="M18.4998 9.5H17.0013V10.9985H18.4998V9.5Z" fill="#8AA88B"/>
<path d="M18.4998 7.99902H17.0013V9.50002H18.4998V7.99902Z" fill="#8AA88B"/>
<path d="M17.0014 18.498H15.5004V19.999H17.0014V18.498Z" fill="#DEDEDE"/>
<path d="M17.0014 16.9995H15.5004V18.498H17.0014V16.9995Z" fill="#DEDEDE"/>
<path d="M17.0014 15.4985H15.5004V16.9995H17.0014V15.4985Z" fill="#DEDEDE"/>
<path d="M17.0014 14.0005H15.5004V15.499H17.0014V14.0005Z" fill="#DEDEDE"/>
<path d="M17.0014 12.4995H15.5004V14.0005H17.0014V12.4995Z" fill="#DEDEDE"/>
<path d="M17.0014 10.998H15.5004V12.499H17.0014V10.998Z" fill="#C0D6C0"/>
<path d="M17.0014 9.5H15.5004V10.9985H17.0014V9.5Z" fill="#C0D6C0"/>
<path d="M17.0014 7.99902H15.5004V9.50002H17.0014V7.99902Z" fill="#C0D6C0"/>
<path d="M17.0014 6.50049H15.5004V7.99895H17.0014V6.50049Z" fill="#8AA88B"/>
<path d="M15.5004 18.498H13.9994V19.999H15.5004V18.498Z" fill="#DEDEDE"/>
<path d="M15.5004 16.9995H13.9994V18.498H15.5004V16.9995Z" fill="#DEDEDE"/>
<path d="M15.5004 15.4985H13.9994V16.9995H15.5004V15.4985Z" fill="#DEDEDE"/>
<path d="M15.5004 14.0005H13.9994V15.499H15.5004V14.0005Z" fill="#DEDEDE"/>
<path d="M15.5004 12.4995H13.9994V14.0005H15.5004V12.4995Z" fill="#DEDEDE"/>
<path d="M15.5004 10.998H13.9994V12.499H15.5004V10.998Z" fill="#DEDEDE"/>
<path d="M15.5004 9.5H13.9994V10.9985H15.5004V9.5Z" fill="#DEDEDE"/>
<path d="M15.5004 7.99902H13.9994V9.50002H15.5004V7.99902Z" fill="#C0D6C0"/>
<path d="M15.5004 6.50049H13.9994V7.99895H15.5004V6.50049Z" fill="#C0D6C0"/>
<path d="M15.5004 4.99951H13.9994V6.50051H15.5004V4.99951Z" fill="#8AA88B"/>
<path d="M13.9993 18.498H12.5009V19.999H13.9993V18.498Z" fill="#DEDEDE"/>
<path d="M13.9993 16.9995H12.5009V18.498H13.9993V16.9995Z" fill="#DEDEDE"/>
<path d="M13.9993 15.4985H12.5009V16.9995H13.9993V15.4985Z" fill="#DEDEDE"/>
<path d="M13.9993 14.0005H12.5009V15.499H13.9993V14.0005Z" fill="#DEDEDE"/>
<path d="M13.9993 12.4995H12.5009V14.0005H13.9993V12.4995Z" fill="#DEDEDE"/>
<path d="M13.9993 10.998H12.5009V12.499H13.9993V10.998Z" fill="#DEDEDE"/>
<path d="M13.9993 9.5H12.5009V10.9985H13.9993V9.5Z" fill="#DEDEDE"/>
<path d="M13.9993 7.99902H12.5009V9.50002H13.9993V7.99902Z" fill="#DEDEDE"/>
<path d="M13.9993 6.50049H12.5009V7.99895H13.9993V6.50049Z" fill="#C0D6C0"/>
<path d="M13.9993 4.99951H12.5009V6.50051H13.9993V4.99951Z" fill="#8AA88B"/>
<path d="M12.501 18.498H11V19.999H12.501V18.498Z" fill="#DEDEDE"/>
<path d="M12.501 16.9995H11V18.498H12.501V16.9995Z" fill="#DEDEDE"/>
<path d="M12.501 15.4985H11V16.9995H12.501V15.4985Z" fill="#DEDEDE"/>
<path d="M12.501 14.0005H11V15.499H12.501V14.0005Z" fill="#DEDEDE"/>
<path d="M12.501 12.4995H11V14.0005H12.501V12.4995Z" fill="#DEDEDE"/>
<path d="M12.501 10.998H11V12.499H12.501V10.998Z" fill="#DEDEDE"/>
<path d="M12.501 9.5H11V10.9985H12.501V9.5Z" fill="#DEDEDE"/>
<path d="M12.501 7.99902H11V9.50002H12.501V7.99902Z" fill="#DEDEDE"/>
<path d="M12.501 6.50049H11V7.99895H12.501V6.50049Z" fill="#C0D6C0"/>
<path d="M12.501 4.99951H11V6.50051H12.501V4.99951Z" fill="#8AA88B"/>
<path d="M10.9999 16.9995H9.50146V18.498H10.9999V16.9995Z" fill="#DEDEDE"/>
<path d="M10.9999 15.4985H9.50146V16.9995H10.9999V15.4985Z" fill="#DEDEDE"/>
<path d="M10.9999 14.0005H9.50146V15.499H10.9999V14.0005Z" fill="#DEDEDE"/>
<path d="M10.9999 12.4995H9.50146V14.0005H10.9999V12.4995Z" fill="#DEDEDE"/>
<path d="M10.9999 10.998H9.50146V12.499H10.9999V10.998Z" fill="#DEDEDE"/>
<path d="M10.9999 9.5H9.50146V10.9985H10.9999V9.5Z" fill="#DEDEDE"/>
<path d="M10.9999 7.99902H9.50146V9.50002H10.9999V7.99902Z" fill="#DEDEDE"/>
<path d="M10.9999 6.50049H9.50146V7.99895H10.9999V6.50049Z" fill="#C0D6C0"/>
<path d="M10.9999 4.99951H9.50146V6.50051H10.9999V4.99951Z" fill="#8AA88B"/>
<path d="M9.50148 16.9995H8.00049V18.498H9.50148V16.9995Z" fill="#DEDEDE"/>
<path d="M9.50148 15.4985H8.00049V16.9995H9.50148V15.4985Z" fill="#DEDEDE"/>
<path d="M9.50148 14.0005H8.00049V15.499H9.50148V14.0005Z" fill="#DEDEDE"/>
<path d="M9.50148 12.4995H8.00049V14.0005H9.50148V12.4995Z" fill="#DEDEDE"/>
<path d="M9.50148 10.998H8.00049V12.499H9.50148V10.998Z" fill="#DEDEDE"/>
<path d="M9.50148 9.5H8.00049V10.9985H9.50148V9.5Z" fill="#DEDEDE"/>
<path d="M9.50148 7.99902H8.00049V9.50002H9.50148V7.99902Z" fill="#DEDEDE"/>
<path d="M9.50148 6.50049H8.00049V7.99895H9.50148V6.50049Z" fill="#DEDEDE"/>
<path d="M9.50148 4.99951H8.00049V6.50051H9.50148V4.99951Z" fill="#8AA88B"/>
<path d="M9.50148 3.49854H8.00049V4.99953H9.50148V3.49854Z" fill="#80BB82"/>
<path d="M9.50148 2H8.00049V3.49846H9.50148V2Z" fill="#80BB82"/>
<path d="M8.00051 27.499H6.49951V29H8.00051V27.499Z" fill="#80BB82"/>
<path d="M8.00051 25.998H6.49951V27.499H8.00051V25.998Z" fill="#80BB82"/>
<path d="M8.00051 24.4995H6.49951V25.998H8.00051V24.4995Z" fill="#80BB82"/>
<path d="M8.00051 22.9985H6.49951V24.4995H8.00051V22.9985Z" fill="#80BB82"/>
<path d="M8.00051 21.5H6.49951V22.9985H8.00051V21.5Z" fill="#80BB82"/>
<path d="M8.00051 19.999H6.49951V21.5H8.00051V19.999Z" fill="#80BB82"/>
<path d="M8.00051 18.498H6.49951V19.999H8.00051V18.498Z" fill="#80BB82"/>
<path d="M8.00051 16.9995H6.49951V18.498H8.00051V16.9995Z" fill="#80BB82"/>
<path d="M8.00051 15.4985H6.49951V16.9995H8.00051V15.4985Z" fill="#80BB82"/>
<path d="M8.00051 14.0005H6.49951V15.499H8.00051V14.0005Z" fill="#80BB82"/>
<path d="M8.00051 12.4995H6.49951V14.0005H8.00051V12.4995Z" fill="#80BB82"/>
<path d="M8.00051 10.998H6.49951V12.499H8.00051V10.998Z" fill="#80BB82"/>
<path d="M8.00051 9.5H6.49951V10.9985H8.00051V9.5Z" fill="#80BB82"/>
<path d="M8.00051 7.99902H6.49951V9.50002H8.00051V7.99902Z" fill="#80BB82"/>
<path d="M8.00051 6.50049H6.49951V7.99895H8.00051V6.50049Z" fill="#80BB82"/>
<path d="M8.00051 4.99951H6.49951V6.50051H8.00051V4.99951Z" fill="#80BB82"/>
<path d="M8.00051 3.49854H6.49951V4.99953H8.00051V3.49854Z" fill="#80BB82"/>
<path d="M8.00051 2H6.49951V3.49846H8.00051V2Z" fill="#80BB82"/>
<path d="M6.49945 27.499H5.00098V29H6.49945V27.499Z" fill="#8AA88B"/>
<path d="M6.49945 25.998H5.00098V27.499H6.49945V25.998Z" fill="#8AA88B"/>
<path d="M6.49945 24.4995H5.00098V25.998H6.49945V24.4995Z" fill="#8AA88B"/>
<path d="M6.49945 22.9985H5.00098V24.4995H6.49945V22.9985Z" fill="#8AA88B"/>
<path d="M6.49945 21.5H5.00098V22.9985H6.49945V21.5Z" fill="#8AA88B"/>
<path d="M6.49945 19.999H5.00098V21.5H6.49945V19.999Z" fill="#8AA88B"/>
<path d="M6.49945 18.498H5.00098V19.999H6.49945V18.498Z" fill="#8AA88B"/>
<path d="M6.49945 16.9995H5.00098V18.498H6.49945V16.9995Z" fill="#8AA88B"/>
<path d="M6.49945 15.4985H5.00098V16.9995H6.49945V15.4985Z" fill="#8AA88B"/>
<path d="M6.49945 14.0005H5.00098V15.499H6.49945V14.0005Z" fill="#8AA88B"/>
<path d="M6.49945 12.4995H5.00098V14.0005H6.49945V12.4995Z" fill="#8AA88B"/>
<path d="M6.49945 10.998H5.00098V12.499H6.49945V10.998Z" fill="#8AA88B"/>
<path d="M6.49945 9.5H5.00098V10.9985H6.49945V9.5Z" fill="#8AA88B"/>
<path d="M6.49945 7.99902H5.00098V9.50002H6.49945V7.99902Z" fill="#8AA88B"/>
<path d="M6.49945 6.50049H5.00098V7.99895H6.49945V6.50049Z" fill="#8AA88B"/>
<path d="M6.49945 4.99951H5.00098V6.50051H6.49945V4.99951Z" fill="#8AA88B"/>
<path d="M6.49945 3.49854H5.00098V4.99953H6.49945V3.49854Z" fill="#80BB82"/>
<path d="M6.49945 2H5.00098V3.49846H6.49945V2Z" fill="#80BB82"/>
<path d="M5.001 3.49854H3.5V4.99953H5.001V3.49854Z" fill="#80BB82"/>
<path d="M5.001 2H3.5V3.49846H5.001V2Z" fill="#80BB82"/>
</svg>
